 <svg version="1.0" xmlns="http://www.w3.org/2000/svg" width="700.000000pt" height="652.000000pt" viewBox="0 0 700.000000 652.000000" preserveAspectRatio="xMidYMid meet">
<metadata>
Created by potrace 1.12, written by Peter Selinger 2001-2015
</metadata>
<g transform="translate(0.000000,652.000000) scale(0.100000,-0.100000)" fill="#000000" stroke="none">
<path d="M5920 6266 c0 -140 -3 -261 -6 -270 -5 -14 -39 -16 -274 -16 -189 0
-271 -3 -276 -11 -12 -21 -4 -503 9 -511 7 -4 127 -8 268 -8 203 0 259 -3 268
-13 8 -10 12 -545 13 -1973 l3 -1959 505 -3 c278 -1 520 0 538 3 l32 6 0 248
c0 218 -2 250 -16 255 -9 3 -131 6 -273 6 -187 0 -260 3 -269 12 -9 9 -12 523
-12 2250 l0 2238 -255 0 -255 0 0 -254z"></path>
<path d="M2277 5183 c-4 -3 -7 -592 -7 -1308 0 -998 -3 -1304 -12 -1313 -9 -9
-84 -12 -274 -12 -242 0 -263 -1 -267 -17 -4 -17 -3 -329 1 -450 l2 -53 264 0
c208 0 266 -3 275 -13 7 -10 12 -139 13 -413 l3 -399 255 0 255 0 5 1725 5
1725 270 5 270 5 0 260 0 260 -526 3 c-289 1 -529 -1 -532 -5z"></path>
<path d="M4117 5073 c-4 -3 -7 -873 -7 -1933 0 -1847 -1 -1928 -18 -1943 -16
-14 -54 -17 -278 -19 l-259 -3 0 -255 0 -255 525 -3 c486 -2 526 -1 538 15 10
14 12 355 12 1658 0 902 0 1646 0 1653 0 9 59 12 264 12 206 0 266 3 275 13
11 15 22 505 11 512 -4 2 -119 5 -256 5 -137 1 -259 4 -271 7 l-23 5 0 232 c0
127 -3 248 -6 269 l-7 37 -247 0 c-136 0 -250 -3 -253 -7z"></path>
<path d="M577 4554 c-4 -4 -7 -172 -7 -374 0 -271 -3 -369 -12 -378 -9 -9 -81
-12 -263 -12 -137 0 -260 -3 -272 -6 l-23 -6 0 -249 0 -249 266 0 c164 0 273
-4 285 -10 19 -11 19 -39 19 -1640 l0 -1630 535 0 535 0 0 253 c0 183 -3 256
-12 265 -9 9 -81 12 -263 12 -185 0 -256 3 -268 13 -16 11 -17 146 -20 2012
l-2 2000 -246 3 c-135 1 -248 -1 -252 -4z"></path>
</g>
</svg>